<svg width="74" height="97" viewBox="0 0 74 97" fill="none" xmlns="http://www.w3.org/2000/svg">
<path d="M68.2587 25.8207C62.3551 8.28627 43.3549 -1.14236 25.8205 4.76123C8.28612 10.6648 -1.1425 29.665 4.76108 47.1994C10.0537 62.9193 25.8723 72.1216 41.7243 69.6045L41.4058 87.092L64.394 55.0835L64.3879 55.0835C69.9302 46.7519 71.6988 36.0382 68.2587 25.8207Z" fill="#00FF00"/>
<path d="M24.8631 1.91793C43.9677 -4.51433 64.6701 5.75861 71.1024 24.8632C74.2346 34.1664 73.3983 43.8467 69.5203 52.0703L70.2527 52.0693L38.2313 96.6552L38.6619 72.9502C22.6218 73.9067 7.29181 64.1178 1.91778 48.1562C-4.51415 29.0517 5.75868 8.35018 24.8631 1.91793ZM68.2586 25.8203C62.3549 8.28613 43.3544 -1.14186 25.8201 4.76168L25.0047 5.04781C7.99538 11.2585 -1.04975 29.9388 4.76153 47.1992C10.0542 62.919 25.8724 72.1216 41.7244 69.6045L41.4061 87.0918L64.3943 55.0839H64.3875C69.9299 46.7523 71.6987 36.0379 68.2586 25.8203Z" fill="white"/>
<path d="M64.5626 36.0918C64.5626 51.2797 52.2504 63.5918 37.0626 63.5918C21.8747 63.5918 9.56256 51.2797 9.56256 36.0918C9.56256 20.904 21.8747 8.59184 37.0626 8.59184C52.2504 8.59184 64.5626 20.904 64.5626 36.0918Z" fill="#00FF00"/>
<path d="M60.6171 36.5918C60.6171 23.3069 49.8475 12.5373 36.5626 12.5373C23.2776 12.5373 12.508 23.3069 12.508 36.5918C12.508 49.8768 23.2776 60.6464 36.5626 60.6464V63.5918C21.6509 63.5918 9.56256 51.5035 9.56256 36.5918C9.56256 21.6802 21.6509 9.59184 36.5626 9.59184C51.4742 9.59184 63.5626 21.6802 63.5626 36.5918C63.5626 51.5035 51.4742 63.5918 36.5626 63.5918V60.6464C49.8475 60.6464 60.6171 49.8768 60.6171 36.5918Z" fill="black"/>
</svg>
